<svg height="464pt" viewBox="0 0 464.02574 464" width="464pt" xmlns="http://www.w3.org/2000/svg"><path d="m40 464.011719-40-41.433594 256-323.136719 64 84.570313h87.398438l16.601562 23.140625-16 12.808594-22.199219-4.519532-4.367187 22.992188-22.203125-4.519532-4.367188 22.992188-22.199219-4.511719-4.359374 22.992188-22.207032-4.519531-4.363281 22.992187-22.207031-4.519531-4.359375 23-22.199219-4.523438-4.367188 22.992188-22.203124-4.519532-4.367188 23-22.199219-4.519531-4.367187 22.992188-22.199219-4.519531-4.363281 23-22.207032-4.519532-4.359374 22.992188-22.207032-4.519532-4.359375 23-22.203125-4.519531-4.367187 22.992188-22.199219-4.523438-4.367188 23zm0 0" fill="#d1d1cf"/><path d="m0 422.578125 40 41.433594 22.632812-3.867188 4.367188-23 22.199219 4.523438 4.367187-22.992188 22.203125 4.519531 4.359375-23 22.207032 4.519532 4.359374-22.992188 22.207032 4.519532 4.363281-23 22.199219 4.519531 4.367187-22.992188 22.199219 4.519531 4.367188-23 22.203124 4.519532 4.367188-22.992188 22.199219 4.523438 4-21.226563c-71.394531 25.378907-144.9375 44.257813-219.726563 56.410157zm0 0" fill="#c4c4c2"/><path d="m446.304688 65.105469-86.207032-44.359375c-5.304687-2.753906-9.566406-7.15625-12.144531-12.542969-2.097656-4.5625-6.472656-7.664063-11.472656-8.1289062-5-.4687498-9.871094 1.7695312-12.777344 5.8632812l-67.703125 93.503906 64 84.570313h88l49.601562-69.378907c5.707032-7.878906 7.742188-17.835937 5.578126-27.324218-2.164063-9.484375-8.3125-17.578125-16.875-22.203125zm-42.640626 55.847656c-5.605468 7.925781-16.226562 10.453125-24.800781 5.898437l-46.109375-24.625c-5.207031-2.890624-8.925781-7.871093-10.214844-13.683593-1.289062-5.8125-.027343-11.898438 3.46875-16.71875 5.605469-7.925781 16.226563-10.449219 24.800782-5.894531l46.113281 24.625c5.203125 2.886718 8.921875 7.871093 10.210937 13.683593 1.289063 5.808594.027344 11.898438-3.46875 16.714844zm0 0" fill="#dd4a43"/><path d="m32 408.011719h16v16.566406h-16zm0 0" fill="#a6a6a4"/><g fill="#dbdbd9"><path d="m150.4375 278.847656 63.191406-81.761718 12.652344 9.777343-63.191406 81.765625zm0 0"/><path d="m223.429688 184.375 10.25-13.261719 12.652343 9.78125-10.25 13.261719zm0 0"/></g></svg>