<svg height="512pt" viewBox="0 -2 512 512" width="512pt" xmlns="http://www.w3.org/2000/svg"><path d="m495.476562 272.511719v-205.660157c0-16.289062-13.25-29.539062-29.539062-29.539062h-125.707031v-16.046875c0-11.726563-9.539063-21.265625-21.265625-21.265625h-125.929688c-11.722656 0-21.265625 9.539062-21.265625 21.265625v16.046875h-125.707031c-16.289062 0-29.539062 13.25-29.539062 29.539062v205.660157c-9.617188 3.414062-16.523438 12.605469-16.523438 23.378906v125.261719c0 9.921875 15.011719 9.9375 15.011719 0v-125.261719c0-5.394531 4.390625-9.785156 9.785156-9.785156h462.40625c5.394531 0 9.785156 4.390625 9.785156 9.785156v186.738281c0 5.394532-4.390625 9.785156-9.785156 9.785156h-462.40625c-5.394531 0-9.785156-4.390624-9.785156-9.785156v-31.453125c0-9.921875-15.011719-9.9375-15.011719 0v31.453125c0 13.671875 11.125 24.796875 24.796875 24.796875h462.40625c13.671875 0 24.796875-11.125 24.796875-24.796875v-186.738281c0-10.773437-6.90625-19.964844-16.523438-23.378906zm-308.695312-251.246094c0-3.449219 2.808594-6.253906 6.253906-6.253906h125.929688c3.445312 0 6.253906 2.804687 6.253906 6.253906v16.046875h-138.4375zm-140.71875 31.058594h419.875c8.007812 0 14.527344 6.515625 14.527344 14.527343v204.242188h-122.664063v-70.414062c12.28125-5.726563 9.542969-18.617188 9.886719-20.074219l5.191406-.003907c.980469 6.082032 6.25 10.859376 12.765625 10.859376.105469 0 8.089844-.003907 23.925781-.003907 7.128907-.003906 12.929688-5.800781 12.929688-12.929687v-43.917969c0-7.128906-5.800781-12.929687-12.929688-12.929687l-23.933593.003906c-6.421875 0-11.765625 4.703125-12.761719 10.847656h-4.976562c-1.0625-5.796875-6.144532-10.328125-12.410157-10.328125-30.183593.003906-18.054687.003906-49.71875.003906-30.484375 0-64.660156 27.03125-66.339843 68.574219-.257813 6.296875 4.824218 11.484375 11.054687 11.484375 3.410156-.40625 9.671875 1.554687 14.28125-3.957031 2.300781-2.75 11.042969-11.410156 25.238281-15.082032 1.019532-.265624 2.519532.140626 2.546875 1.984376.097657 7.714843 4.949219 13.917968 11.566407 16.15625v69.726562h-124.226563v-21.121094c0-16.058594 5.8125-31.40625 16.371094-43.21875 9.59375-10.734375 14.878906-24.578125 14.878906-38.988281 0-21.863281-12.046875-41.746094-31.4375-51.886719-7.277344-3.804687-15.992187 1.464844-15.992187 9.671875-.574219 36.761719 1.257812 38.953125-1.359376 38.953125h-19.46875c-.75 0-1.359374-.609375-1.359374-1.359375v-37.59375c0-8.207031-8.71875-13.480469-15.992188-9.671875-19.390625 10.140625-31.4375 30.023438-31.4375 51.886719 0 14.410156 5.285156 28.253906 14.878906 38.988281 10.558594 11.8125 16.375 27.160156 16.375 43.222656v21.117188h-93.8125v-204.242188c0-8.011718 6.519532-14.527343 14.527344-14.527343zm306.617188 125.828125-.015626 7.0625c0 1.125-.917968 2.039062-2.039062 2.039062-40.898438-.316406-43.0625 1.164063-43.0625-2.042968 0-10.90625-10.089844-18.976563-20.753906-16.652344-16.496094 3.59375-27.15625 13.0625-32.046875 18.398437 3.582031-32.484375 31.285156-49.738281 51.007812-49.738281l47.503907-.003906c.984374 5.710937 5.972656 10.332031 12.285156 10.332031.15625 0 9.339844-.007813 9.238281-.007813 6.417969 0 11.757813-4.707031 12.757813-10.847656h19.933593v39.753906c-5.894531 0-14.054687 0-19.910156 0-.902344-6.042968-6.125-10.855468-12.632813-10.855468-.183593 0-9.75.007812-9.648437.007812-6.890625 0-12.550781 5.605469-12.617187 12.554688zm-33.546876 24.113281h23.65625v68.828125h-23.65625zm-176.25-22.75h19.46875c9.027344 0 16.371094-7.34375 16.371094-16.371094v-30.203125c10.878906 8.144532 17.40625 20.945313 17.40625 34.824219 0 10.710937-3.925781 21.003906-11.058594 28.980469-13.019531 14.566406-20.191406 33.472656-20.191406 53.226562v21.121094h-24.523437v-21.121094c0-19.757812-7.167969-38.660156-20.191407-53.226562-7.132812-7.976563-11.058593-18.269532-11.058593-28.980469 0-13.878906 6.527343-26.679687 17.40625-34.824219v30.203125c0 9.027344 7.34375 16.371094 16.371093 16.371094zm0 0"/><path d="m316.597656 368.128906c14.804688 0 26.851563-12.046875 26.851563-26.851562 0-14.808594-12.046875-26.851563-26.851563-26.851563h-121.195312c-14.804688 0-26.851563 12.042969-26.851563 26.851563 0 14.804687 12.046875 26.851562 26.851563 26.851562zm-133.035156-26.851562c0-6.53125 5.308594-11.839844 11.839844-11.839844h121.195312c6.527344 0 11.839844 5.308594 11.839844 11.839844 0 6.527344-5.308594 11.839844-11.839844 11.839844h-121.195312c-6.527344-.003907-11.839844-5.3125-11.839844-11.839844zm0 0"/><path d="m66.296875 248.578125v-161.492187h379.40625v161.492187c0 9.921875 15.011719 9.9375 15.011719 0v-162.09375c0-7.945313-6.464844-14.410156-14.410156-14.410156h-380.609376c-7.945312 0-14.410156 6.464843-14.410156 14.410156v162.09375c0 9.921875 15.011719 9.9375 15.011719 0zm0 0"/></svg>