<?xml version="1.0" encoding="UTF-8" standalone="no"?>
<!-- Created with Inkscape (http://www.inkscape.org/) -->

<svg
   xmlns:dc="http://purl.org/dc/elements/1.1/"
   xmlns:cc="http://creativecommons.org/ns#"
   xmlns:rdf="http://www.w3.org/1999/02/22-rdf-syntax-ns#"
   xmlns:svg="http://www.w3.org/2000/svg"
   xmlns="http://www.w3.org/2000/svg"
   xmlns:xlink="http://www.w3.org/1999/xlink"
   xmlns:sodipodi="http://sodipodi.sourceforge.net/DTD/sodipodi-0.dtd"
   xmlns:inkscape="http://www.inkscape.org/namespaces/inkscape"
   width="50.197891mm"
   height="24.952383mm"
   viewBox="0 0 50.197891 24.952383"
   version="1.1"
   id="svg4376"
   inkscape:version="0.92.3 (2405546, 2018-03-11)"
   sodipodi:docname="diy.svg">
  <defs
     id="defs4370">
    <clipPath
       clipPathUnits="userSpaceOnUse"
       id="clipPath4184">
      <use
         x="0"
         y="0"
         xlink:href="#g4180"
         id="use4186"
         width="100%"
         height="100%" />
    </clipPath>
    <clipPath
       clipPathUnits="userSpaceOnUse"
       id="clipPath4277">
      <use
         x="0"
         y="0"
         xlink:href="#g4273"
         id="use4279"
         width="100%"
         height="100%" />
    </clipPath>
  </defs>
  <sodipodi:namedview
     id="base"
     pagecolor="#ffffff"
     bordercolor="#666666"
     borderopacity="1.0"
     inkscape:pageopacity="0.0"
     inkscape:pageshadow="2"
     inkscape:zoom="1.979899"
     inkscape:cx="67.492675"
     inkscape:cy="3.1614179"
     inkscape:document-units="mm"
     inkscape:current-layer="layer1"
     showgrid="false"
     inkscape:window-width="1920"
     inkscape:window-height="1017"
     inkscape:window-x="1912"
     inkscape:window-y="-8"
     inkscape:window-maximized="1" />
  <metadata
     id="metadata4373">
    <rdf:RDF>
      <cc:Work
         rdf:about="">
        <dc:format>image/svg+xml</dc:format>
        <dc:type
           rdf:resource="http://purl.org/dc/dcmitype/StillImage" />
        <dc:title></dc:title>
      </cc:Work>
    </rdf:RDF>
  </metadata>
  <g
     inkscape:label="Layer 1"
     inkscape:groupmode="layer"
     id="layer1"
     transform="translate(-2.8712914,-6.3333319)">
    <g
       id="g4324"
       transform="matrix(0.07299882,0,0,0.0699333,11.92795,11.211401)">
      <g
         transform="matrix(0.6696409,0,0,0.6696409,252.85726,-50.3061)"
         id="g4152">
        <path
           style="fill:#d1d1cf"
           inkscape:connector-curvature="0"
           d="M 40,464.01172 0,422.57812 256,99.441406 320,184.01172 h 87.39844 L 424,207.15234 l -16,12.8086 -22.19922,-4.51953 -4.36719,22.99218 -22.20312,-4.51953 -4.36719,22.99219 -22.19922,-4.51172 -4.35937,22.99219 -22.20703,-4.51953 -4.36328,22.99218 -22.20704,-4.51953 -4.35937,23 -22.19922,-4.52343 -4.36719,22.99218 -22.20312,-4.51953 -4.36719,23 -22.19922,-4.51953 -4.36719,22.99219 -22.19921,-4.51953 -4.36329,23 -22.20703,-4.51953 -4.35937,22.99218 -22.20703,-4.51953 -4.35938,23 -22.203124,-4.51953 -4.367187,22.99219 L 67,437.14453 l -4.367188,23 z m 0,0"
           id="path4123" />
        <path
           style="fill:#c4c4c2"
           inkscape:connector-curvature="0"
           d="m 0,422.57812 40,41.4336 22.632812,-3.86719 4.367188,-23 22.199219,4.52344 4.367187,-22.99219 22.203124,4.51953 4.35938,-23 22.20703,4.51953 4.35937,-22.99218 22.20703,4.51953 4.36328,-23 22.19922,4.51953 4.36719,-22.99219 22.19922,4.51953 4.36719,-23 22.20312,4.51953 4.36719,-22.99218 22.19922,4.52343 4,-21.22656 c -71.39453,25.37891 -144.9375,44.25781 -219.726564,56.41016 z m 0,0"
           id="path4125" />
        <path
           style="fill:#dd4a43"
           inkscape:connector-curvature="0"
           d="M 446.30469,65.105469 360.09766,20.746094 c -5.30469,-2.753906 -9.56641,-7.15625 -12.14454,-12.542969 -2.09765,-4.5625 -6.47265,-7.664063 -11.47265,-8.1289062 -5,-0.4687498 -9.8711,1.7695312 -12.77735,5.8632812 L 256,99.441406 320,184.01172 h 88 l 49.60156,-69.37891 c 5.70703,-7.8789 7.74219,-17.835935 5.57813,-27.324216 -2.16407,-9.484375 -8.3125,-17.578125 -16.875,-22.203125 z m -42.64063,55.847661 c -5.60547,7.92578 -16.22656,10.45312 -24.80078,5.89843 l -46.10937,-24.625 c -5.20703,-2.890622 -8.92579,-7.871091 -10.21485,-13.683591 -1.28906,-5.8125 -0.0273,-11.898438 3.46875,-16.71875 5.60547,-7.925781 16.22657,-10.449219 24.80078,-5.894531 l 46.11329,24.625 c 5.20312,2.886718 8.92187,7.871093 10.21093,13.683592 1.28907,5.8086 0.0274,11.89844 -3.46875,16.71485 z m 0,0"
           id="path4127" />
        <path
           style="fill:#a6a6a4"
           inkscape:connector-curvature="0"
           d="m 32,408.01172 h 16 v 16.5664 H 32 Z m 0,0"
           id="path4129" />
        <g
           style="fill:#dbdbd9"
           id="g4135">
          <path
             inkscape:connector-curvature="0"
             d="m 150.4375,278.84766 63.19141,-81.76172 12.65234,9.77734 -63.19141,81.76563 z m 0,0"
             id="path4131" />
          <path
             inkscape:connector-curvature="0"
             d="m 223.42969,184.375 10.25,-13.26172 12.65234,9.78125 -10.25,13.26172 z m 0,0"
             id="path4133" />
        </g>
      </g>
      <g
         transform="matrix(0.35924889,-0.37224967,0.34822186,0.38403757,-7.9666833,93.454747)"
         clip-path="url(#clipPath4184)"
         id="g4182">
        <g
           id="g4180"
           inkscape:label="Clip">
          <path
             id="path4154"
             d="m 296,256 -88,-88 -24,24 c -0.008,19.12109 -12.25391,36.08984 -30.39844,42.12109 l -7.69922,2.56641 c -6.53515,2.17578 -12.47656,5.84766 -17.35156,10.71875 L 18.152344,357.80859 C 6.515625,369.48047 -0.0117188,385.29297 0,401.77734 0,436.14062 27.859375,464 62.222656,464 c 16.503906,0 32.332032,-6.55469 44.000004,-18.22266 L 216.625,335.375 c 4.87109,-4.87109 8.54297,-10.8125 10.71875,-17.35156 l 2.56641,-7.69532 C 235.96094,292.22266 252.91016,280.01172 272,280 Z m 0,0"
             inkscape:connector-curvature="0"
             style="fill:#dd4a43" />
          <path
             id="path4156"
             d="m 236,196 32,32 132,-132 24,-8 40,-56 -32,-32 -56,40 -8,24 z m 0,0"
             inkscape:connector-curvature="0"
             style="fill:#c4c4c2" />
          <path
             id="path4158"
             d="m 11.199219,366.28906 c -13.246094,19 -14.832031,43.78906 -4.109375,64.32422 C 17.8125,451.14453 39.0625,464.01172 62.222656,464 78.726562,463.996 94.554688,457.44141 106.22266,445.77734 L 210.60937,341.39062 c -64.8789,18.08204 -132.07812,26.46875 -199.410151,24.89844 z m 0,0"
             inkscape:connector-curvature="0"
             style="fill:#cc443e" />
          <path
             id="path4160"
             d="M 52.964844,387.02734 156.96484,283.02344 c 6.62891,-6.625 17.3711,-6.625 23.9961,0 l 0.008,0.008 c 6.625,6.625 6.625,17.36719 0,23.99609 l -104,104 c -6.628906,6.625 -17.371094,6.625 -24,0 l -0.0039,-0.004 c -6.625,-6.62891 -6.625,-17.3711 0,-23.9961 z m 0,0"
             inkscape:connector-curvature="0"
             style="fill:#bd403a" />
        </g>
      </g>
      <g
         transform="matrix(-0.4568681,0.03381201,0.03381201,0.4568681,475.71619,-75.70408)"
         id="g4220">
        <path
           style="fill:#b0b0ae"
           inkscape:connector-curvature="0"
           d="M 376.00391,240.00781 432,184.01172 l 32,32 -55.99609,55.99609 z m 0,0"
           id="path4188" />
        <path
           style="fill:#a1a19f"
           inkscape:connector-curvature="0"
           d="M 424,192 386,154 346.16016,186.59375 384,232 Z m 0,0"
           id="path4190" />
        <path
           style="fill:#5c5c5b"
           inkscape:connector-curvature="0"
           d="M 128,272 0,400 64,464 192,336 224,280 184,240 Z m 0,0"
           id="path4192" />
        <path
           style="fill:#fdb62f"
           inkscape:connector-curvature="0"
           d="m 183.99219,240 84,-83.99609 40,40 -84,83.99609 z m 0,0"
           id="path4194" />
        <path
           style="fill:#737372"
           inkscape:connector-curvature="0"
           d="m 127.09375,309.59375 11.25,-11.25 11.31641,11.3125 -11.25391,11.25 z m 0,0"
           id="path4196" />
        <path
           style="fill:#737372"
           inkscape:connector-curvature="0"
           d="m 74.347656,362.34375 43.000004,-43 11.3125,11.31641 -43.000004,42.99609 z m 0,0"
           id="path4198" />
        <path
           style="fill:#fda42f"
           inkscape:connector-curvature="0"
           d="m 256,168.00391 14.19922,-14.19922 40,40 L 296,208.00391 Z m 0,0"
           id="path4200" />
        <path
           style="fill:#b0b0ae"
           inkscape:connector-curvature="0"
           d="m 176,0 v 24 c 41.47656,5.1875 80.04297,24.046875 109.60156,53.601562 L 296,88 l -40,56 64,64 88,-72 -68.12109,-68.121094 C 296.41406,24.417969 237.46484,0 176,0 Z m 0,0"
           id="path4202" />
      </g>
      <g
         transform="translate(-452.14287,-647.14287)"
         clip-path="url(#clipPath4277)"
         id="g4275">
        <g
           id="g4273"
           inkscape:label="Clip">
          <path
             style="fill:#cfd8dc;stroke-width:16"
             inkscape:connector-curvature="0"
             d="m 376.30477,625.76074 14.85711,13.32157 23.18558,-10.20015 12.68234,21.90984 25.18834,-2.50069 5.28543,24.76112 24.7428,5.37056 -2.58733,25.19558 21.8661,12.75762 -10.2798,23.13436 16.83151,18.90897 -16.89644,18.85097 10.20015,23.18558 -21.90984,12.68234 2.50069,25.18834 -24.76113,5.28543 -5.37055,24.7428 -25.19559,-2.58733 -12.75762,21.86609 -23.13435,-10.27979 -11.39346,10.14042 z"
             id="path4222" />
          <circle
             style="fill:#607d8b;stroke-width:16"
             cx="-757.54474"
             cy="377.38022"
             r="36"
             id="circle4226"
             transform="rotate(-89.901478)" />
          <path
             inkscape:connector-curvature="0"
             d="m 520.07683,758.44015 c -0.005,2.864 -1.01782,5.71026 -3.05375,7.99477 l -11.73449,13.06784 7.09229,16.12422 c 2.42242,5.57217 0.31509,12.16055 -4.98616,15.20744 l -15.21516,8.80585 1.72989,17.507 c 0.67763,6.03318 -3.47605,11.65804 -9.43024,12.92781 l -17.1903,3.65044 -3.72554,17.17762 c -1.30626,5.96576 -6.88122,10.00418 -12.96016,9.38573 l -17.48495,-1.79007 -8.8581,15.16879 c -3.0651,5.29074 -9.64477,7.42343 -15.2245,4.93383 l -16.08376,-7.13167 -5.64061,4.99831 c -4.95158,4.40749 -12.53483,3.96245 -16.94229,-1.00513 -4.42355,-4.91962 -3.96251,-12.50284 1.00513,-16.9423 l 11.40946,-10.1404 c 3.52538,-3.12994 8.53472,-3.90533 12.83544,-1.99393 l 13.31789,5.89491 7.33361,-12.56341 c 2.35901,-4.07595 6.90697,-6.37213 11.59416,-5.90007 l 14.50945,1.49695 3.09654,-14.26669 c 1.01592,-4.60626 4.6061,-8.20009 9.2158,-9.18417 l 14.27724,-3.03145 -1.44705,-14.51451 c -0.50358,-4.89688 1.85587,-9.22883 5.92391,-11.57383 l 12.62058,-7.30631 -5.88104,-13.35413 c -1.88065,-4.27524 -1.08796,-9.32989 2.05409,-12.84449 l 9.74666,-10.84726 -9.69322,-10.92868 c -3.12997,-3.50939 -3.93727,-8.56678 -1.99393,-12.83545 l 5.89491,-13.31788 -12.56341,-7.33362 c -4.09195,-2.35904 -6.43613,-6.90707 -5.90007,-11.59416 l 1.49695,-14.50944 -14.2667,-3.09654 c -4.60626,-1.01592 -8.20009,-4.60611 -9.18416,-9.21581 l -3.03146,-14.27723 -14.51451,1.44704 c -4.68879,0.45594 -9.21282,-1.85584 -11.57383,-5.92391 l -7.30631,-12.62058 -13.35413,5.88105 c -4.30724,1.88059 -9.32988,1.08796 -12.82848,-2.05407 L 368.30537,634.707 c -4.9364,-4.4245 -5.37135,-12.00926 -0.94683,-16.96165 4.42449,-4.9364 12.0092,-5.33936 16.94562,-0.93087 l 9.08999,8.15965 16.12422,-7.09229 c 5.60422,-2.45437 12.14455,-0.31512 15.20744,4.98616 l 8.80585,15.21516 17.507,-1.7299 c 6.08104,-0.59754 11.64207,3.46003 12.92781,9.43025 l 3.66644,17.19033 17.16162,3.72551 c 5.98176,1.30629 10.08391,7.04135 9.38573,12.96016 l -1.79007,17.48495 15.16879,8.85809 c 5.29074,3.06511 7.45537,9.67684 4.93383,15.22451 l -7.13167,16.08376 11.68943,13.14012 c 2.02809,2.27549 3.03119,5.12522 3.02626,7.98921 z"
             id="path4228"
             style="stroke-width:16" />
          <path
             inkscape:connector-curvature="0"
             d="m 424.07698,758.27508 c -0.0455,26.46396 -21.61851,47.9629 -48.08247,47.91739 -26.46396,-0.0455 -47.9629,-21.61851 -47.91739,-48.08247 0.0455,-26.46396 21.6185,-47.96289 48.08247,-47.91739 26.46396,0.0455 47.96289,21.61851 47.91739,48.08247 z m -71.9999,-0.12381 c -0.0228,13.23198 10.72672,24.01848 23.9587,24.04124 13.23198,0.0227 24.01848,-10.72672 24.04123,-23.9587 0.0228,-13.23198 -10.72671,-24.01848 -23.95869,-24.04123 -13.23198,-0.0228 -24.01848,10.72671 -24.04124,23.95869 z"
             id="path4230"
             style="stroke-width:16" />
          <path
             inkscape:connector-curvature="0"
             d="m 388.35903,594.21342 -0.21322,123.99982 c -0.0114,6.62399 -5.39663,11.99073 -12.02062,11.97934 -6.62399,-0.0114 -11.99073,-5.39662 -11.97934,-12.02061 l 0.21322,-123.99982 c 0.0114,-6.62399 5.39663,-11.99073 12.02062,-11.97934 6.62399,0.0114 11.99073,5.39662 11.97934,12.02061 z"
             id="path4234"
             style="stroke-width:16" />
          <path
             inkscape:connector-curvature="0"
             d="m 388.00825,798.21312 -0.21322,123.99981 c -0.0114,6.62399 -5.39663,11.99074 -12.02062,11.97935 -6.62399,-0.0114 -11.99074,-5.39663 -11.97935,-12.02062 l 0.21322,-123.99981 c 0.0114,-6.62399 5.39663,-11.99074 12.02062,-11.97935 6.62399,0.0114 11.99074,5.39663 11.97935,12.02062 z"
             id="path4236"
             style="stroke-width:16" />
        </g>
      </g>
    </g>
  </g>
</svg>
