<svg height="464pt" viewBox="0 0 464.00133 464" width="464pt" xmlns="http://www.w3.org/2000/svg"><path d="m376.003906 240.007812 55.996094-55.996093 32 32-55.996094 55.996093zm0 0" fill="#b0b0ae"/><path d="m424 192-38-38-39.839844 32.59375 37.839844 45.40625zm0 0" fill="#a1a19f"/><path d="m128 272-128 128 64 64 128-128 32-56-40-40zm0 0" fill="#5c5c5b"/><path d="m183.992188 240 84-83.996094 40 40-84 83.996094zm0 0" fill="#fdb62f"/><path d="m127.09375 309.59375 11.25-11.25 11.316406 11.3125-11.253906 11.25zm0 0" fill="#737372"/><path d="m74.347656 362.34375 43-43 11.3125 11.316406-43 42.996094zm0 0" fill="#737372"/><path d="m256 168.003906 14.199219-14.199218 40 40-14.199219 14.199218zm0 0" fill="#fda42f"/><path d="m176 0v24c41.476562 5.1875 80.042969 24.046875 109.601562 53.601562l10.398438 10.398438-40 56 64 64 88-72-68.121094-68.121094c-43.464844-43.460937-102.414062-67.878906-163.878906-67.878906zm0 0" fill="#b0b0ae"/></svg>