<svg id="_x31__x2C_5_copy" height="512" viewBox="0 0 24 24" width="512" xmlns="http://www.w3.org/2000/svg"><path d="m19.277 15-.831.93.64 1.448-1.368.795.159 1.574-1.547.333-.333 1.547-1.575-.159-.795 1.368-1.447-.64-1.18 1.054-1.18-1.054-1.448.64-.795-1.368-1.574.159-.333-1.547-1.547-.333.159-1.575-1.368-.795.64-1.447-.635-.711z" fill="#cfd8dc"/><path d="m1.5 15c0-5.247 4.253-9.5 9.5-9.5s9.5 4.253 9.5 9.5z" fill="#00bcd4"/><circle cx="11" cy="15" fill="#607d8b" r="2.25"/><path d="m11 24c-.179 0-.357-.063-.5-.19l-.818-.732-1.007.445c-.348.152-.76.021-.951-.31l-.552-.95-1.094.11c-.377.043-.729-.216-.809-.588l-.23-1.074-1.074-.231c-.373-.081-.626-.429-.588-.809l.11-1.093-.949-.552c-.331-.191-.465-.602-.31-.951l.444-1.006-.313-.352c-.276-.309-.249-.783.061-1.059.307-.277.781-.249 1.059.061l.635.712c.196.22.245.533.126.802l-.367.833.786.457c.255.147.399.431.37.724l-.092.907.892.192c.288.063.513.287.575.575l.191.892.907-.092c.306-.032.577.115.724.369l.458.788.834-.369c.267-.118.583-.069.803.127l.679.608.682-.607c.219-.196.535-.247.802-.126l.833.367.457-.786c.147-.256.431-.403.724-.37l.907.092.192-.892c.063-.288.287-.513.575-.575l.892-.191-.092-.907c-.029-.293.115-.576.369-.724l.788-.458-.369-.834c-.118-.269-.069-.583.127-.802l.83-.93c.276-.309.75-.337 1.06-.061.309.276.335.75.06 1.059l-.509.569.445 1.007c.154.35.021.759-.31.951l-.95.552.11 1.094c.038.38-.215.728-.588.809l-1.074.231-.231 1.073c-.081.374-.439.631-.809.588l-1.093-.11-.552.949c-.191.331-.604.467-.951.31l-1.006-.444-.82.732c-.142.127-.32.19-.499.19z"/><path d="m11 18c-1.654 0-3-1.346-3-3s1.346-3 3-3 3 1.346 3 3-1.346 3-3 3zm0-4.5c-.827 0-1.5.673-1.5 1.5s.673 1.5 1.5 1.5 1.5-.673 1.5-1.5-.673-1.5-1.5-1.5z"/><path d="m20.5 15.75c-.414 0-.75-.336-.75-.75 0-4.825-3.925-8.75-8.75-8.75s-8.75 3.925-8.75 8.75c0 .414-.336.75-.75.75s-.75-.336-.75-.75c0-5.652 4.598-10.25 10.25-10.25s10.25 4.598 10.25 10.25c0 .414-.336.75-.75.75z"/><path d="m21.25 15.75h-7.75c-.414 0-.75-.336-.75-.75s.336-.75.75-.75h7.75c.414 0 .75.336.75.75s-.336.75-.75.75z"/><path d="m8.5 15.75h-7.75c-.414 0-.75-.336-.75-.75s.336-.75.75-.75h7.75c.414 0 .75.336.75.75s-.336.75-.75.75z"/><path d="m20.414 12.75c-.192 0-.384-.073-.53-.22-.293-.293-.293-.768 0-1.061l2.543-2.543c.072-.072.094-.182.053-.276l-3-6.999c-.04-.091-.129-.151-.23-.151h-6c-.089 0-.169.045-.214.121l-2.498 4.164c-.213.354-.674.47-1.029.258-.356-.214-.471-.674-.258-1.029l2.498-4.164c.314-.524.889-.85 1.501-.85h6c.701 0 1.333.416 1.608 1.061l3 6.999c.283.663.138 1.419-.371 1.928l-2.543 2.543c-.146.146-.338.219-.53.219z"/></svg>