<svg height="479pt" viewBox="0 0 479.60172 479" width="479pt" xmlns="http://www.w3.org/2000/svg"><path d="m158.898438 285.671875-104 104c-9.730469 9.761719-9.730469 25.550781 0 35.3125 9.753906 9.738281 25.554687 9.738281 35.3125 0l104-104c9.746093-9.753906 9.746093-25.558594 0-35.3125-9.886719-9.417969-25.425782-9.417969-35.3125 0zm24 24-104 104c-3.503907 3.503906-9.183594 3.503906-12.6875 0-3.503907-3.503906-3.503907-9.183594 0-12.6875l104-104c3.546874-3.390625 9.132812-3.390625 12.679687 0 1.683594 1.679687 2.632813 3.964844 2.632813 6.34375s-.949219 4.664063-2.632813 6.34375zm0 0"/><path d="m434.113281 103.878906c1.613281-.527344 3.015625-1.554687 4-2.933594l40-56c2.269531-3.183593 1.910157-7.542968-.855469-10.304687l-32-32c-2.765624-2.761719-7.125-3.121094-10.304687-.847656l-56 40c-1.378906.984375-2.410156 2.386719-2.941406 4l-7.402344 22.207031-125.023437 124.984375-22.34375-22.34375c-3.125-3.125-8.1875-3.125-11.3125 0l-24 24c-1.5 1.5-2.34375 3.535156-2.34375 5.65625.015624 15.671875-10.019532 29.59375-24.894532 34.527344l-7.699218 2.574219c-7.710938 2.578124-14.71875 6.910156-20.46875 12.65625l-110.402344 110.402343c-27.007813 27.5-26.800782 71.632813.464844 98.878907 27.265624 27.246093 71.398437 27.421874 98.878906.390624l110.402344-110.398437c5.742187-5.761719 10.074218-12.773437 12.65625-20.488281l2.566406-7.695313c4.949218-14.847656 18.847656-24.855469 34.496094-24.847656 2.121093 0 4.15625-.84375 5.65625-2.34375l24-24c3.121093-3.125 3.121093-8.1875 0-11.3125l-22.34375-22.34375 125.007812-125.007813zm-157.953125 176.527344c-21.257812 1.378906-39.5625 15.503906-46.285156 35.722656l-2.570312 7.6875c-1.792969 5.363282-4.804688 10.234375-8.796876 14.238282l-110.402343 110.402343c-21.175781 21.175781-55.511719 21.175781-76.6875 0-21.175781-21.179687-21.175781-55.511719 0-76.6875l110.398437-110.402343c4-3.992188 8.871094-7.007813 14.234375-8.800782l7.6875-2.558594c20.222657-6.714843 34.347657-25.023437 35.71875-46.289062l16.128907-16.109375 76.6875 76.6875zm125.769532-181.765625-126.34375 126.34375-20.6875-20.6875 126.34375-126.34375c.878906-.878906 1.542968-1.949219 1.9375-3.128906l7.199218-21.527344 48.367188-34.554687 22.398437 22.402343-34.550781 48.367188-21.527344 7.199219c-1.179687.394531-2.253906 1.054687-3.136718 1.929687zm0 0"/></svg>