<svg height="464pt" viewBox="0 0 464.00002 464" width="464pt" xmlns="http://www.w3.org/2000/svg"><path d="m296 256-88-88-24 24c-.007812 19.121094-12.253906 36.089844-30.398438 42.121094l-7.699218 2.566406c-6.535156 2.175781-12.476563 5.847656-17.351563 10.71875l-110.398437 110.402344c-11.636719 11.671875-18.1640628 27.484375-18.152344 43.96875 0 34.363281 27.859375 62.222656 62.222656 62.222656 16.503906 0 32.332032-6.554688 44-18.222656l110.402344-110.402344c4.871094-4.871094 8.542969-10.8125 10.71875-17.351562l2.566406-7.695313c6.050782-18.105469 23-30.316406 42.089844-30.328125zm0 0" fill="#dd4a43"/><path d="m236 196 32 32 132-132 24-8 40-56-32-32-56 40-8 24zm0 0" fill="#c4c4c2"/><path d="m11.199219 366.289062c-13.246094 19-14.832031 43.789063-4.109375 64.324219 10.722656 20.53125 31.972656 33.398438 55.132812 33.386719 16.503906-.003906 32.332032-6.558594 44-18.222656l104.386719-104.386719c-64.878906 18.082031-132.078125 26.46875-199.410156 24.898437zm0 0" fill="#cc443e"/><path d="m52.964844 387.027344 104-104.003906c6.628906-6.625 17.371094-6.625 23.996094 0l.007812.007812c6.625 6.625 6.625 17.367188 0 23.996094l-104 104c-6.628906 6.625-17.371094 6.625-24 0l-.003906-.003906c-6.625-6.628907-6.625-17.371094 0-23.996094zm0 0" fill="#bd403a"/></svg>