<?xml version="1.0" encoding="UTF-8" standalone="no"?>
<!-- Created with Inkscape (http://www.inkscape.org/) -->

<svg
   xmlns:dc="http://purl.org/dc/elements/1.1/"
   xmlns:cc="http://creativecommons.org/ns#"
   xmlns:rdf="http://www.w3.org/1999/02/22-rdf-syntax-ns#"
   xmlns:svg="http://www.w3.org/2000/svg"
   xmlns="http://www.w3.org/2000/svg"
   xmlns:sodipodi="http://sodipodi.sourceforge.net/DTD/sodipodi-0.dtd"
   xmlns:inkscape="http://www.inkscape.org/namespaces/inkscape"
   width="150px"
   height="150px"
   viewBox="0 0 163.68843 163.68843"
   version="1.1"
   id="svg4460"
   inkscape:version="0.92.3 (2405546, 2018-03-11)"
   sodipodi:docname="hammer2.svg">
  <defs
     id="defs4454" />
  <sodipodi:namedview
     id="base"
     pagecolor="#ffffff"
     bordercolor="#666666"
     borderopacity="1.0"
     inkscape:pageopacity="0.0"
     inkscape:pageshadow="2"
     inkscape:zoom="0.35"
     inkscape:cx="309.33246"
     inkscape:cy="106.47531"
     inkscape:document-units="mm"
     inkscape:current-layer="layer1"
     showgrid="false"
     inkscape:window-width="1920"
     inkscape:window-height="1017"
     inkscape:window-x="1912"
     inkscape:window-y="-8"
     inkscape:window-maximized="1" />
  <metadata
     id="metadata4457">
    <rdf:RDF>
      <cc:Work
         rdf:about="">
        <dc:format>image/svg+xml</dc:format>
        <dc:type
           rdf:resource="http://purl.org/dc/dcmitype/StillImage" />
        <dc:title></dc:title>
      </cc:Work>
    </rdf:RDF>
  </metadata>
  <g
     inkscape:label="Layer 1"
     inkscape:groupmode="layer"
     id="layer1"
     transform="translate(-23.98912,-13.316501)">
    <g
       id="g4494"
       transform="matrix(0.35277678,0,0,0.35277678,23.98912,13.316501)">
      <path
         id="path4462"
         d="M 376.00391,240.00781 432,184.01172 l 32,32 -55.99609,55.99609 z m 0,0"
         inkscape:connector-curvature="0"
         style="fill:#b0b0ae" />
      <path
         id="path4464"
         d="M 424,192 386,154 346.16016,186.59375 384,232 Z m 0,0"
         inkscape:connector-curvature="0"
         style="fill:#a1a19f" />
      <path
         id="path4466"
         d="M 128,272 0,400 64,464 192,336 224,280 184,240 Z m 0,0"
         inkscape:connector-curvature="0"
         style="fill:#5c5c5b" />
      <path
         id="path4468"
         d="m 183.99219,240 84,-83.99609 40,40 -84,83.99609 z m 0,0"
         inkscape:connector-curvature="0"
         style="fill:#fdb62f" />
      <path
         id="path4470"
         d="m 127.09375,309.59375 11.25,-11.25 11.31641,11.3125 -11.25391,11.25 z m 0,0"
         inkscape:connector-curvature="0"
         style="fill:#737372" />
      <path
         id="path4472"
         d="m 74.347656,362.34375 43.000004,-43 11.3125,11.31641 -43.000004,42.99609 z m 0,0"
         inkscape:connector-curvature="0"
         style="fill:#737372" />
      <path
         id="path4474"
         d="m 256,168.00391 14.19922,-14.19922 40,40 L 296,208.00391 Z m 0,0"
         inkscape:connector-curvature="0"
         style="fill:#fda42f" />
      <path
         id="path4476"
         d="m 176,0 v 24 c 41.47656,5.1875 80.04297,24.046875 109.60156,53.601562 L 296,88 l -40,56 64,64 88,-72 -68.12109,-68.121094 C 296.41406,24.417969 237.46484,0 176,0 Z m 0,0"
         inkscape:connector-curvature="0"
         style="fill:#b0b0ae" />
    </g>
  </g>
</svg>
